<?xml version="1.0" encoding="utf-8"?>
<!-- Generator: Adobe Illustrator 24.1.0, SVG Export Plug-In . SVG Version: 6.00 Build 0)  -->
<svg version="1.1" id="Layer_1" xmlns="http://www.w3.org/2000/svg" xmlns:xlink="http://www.w3.org/1999/xlink" x="0px" y="0px"
	 viewBox="0 0 1792 945" style="enable-background:new 0 0 1792 945;" xml:space="preserve">
<style type="text/css">
	.st0{fill:#120E33;}
	.st1{fill:url(#SVGID_1_);}
	.st2{fill:url(#SVGID_2_);}
	.st3{fill:none;}
	.st4{fill:url(#SVGID_3_);}
	.st5{fill:url(#SVGID_4_);}
	.st6{fill:url(#SVGID_5_);}
	.st7{fill:#FF2982;}
	.st8{fill:url(#SVGID_6_);}
	.st9{fill:url(#SVGID_7_);}
	.st10{fill:url(#SVGID_8_);}
	.st11{fill:url(#SVGID_9_);}
	.st12{fill:url(#SVGID_10_);}
</style>
<g>
	<path class="st0" d="M323,612C184.9,612,73,723.9,73,862s111.9,250,250,250s250-111.9,250-250S461.1,612,323,612z M323,1028
		c-91.1,0-165-73.9-165-165s73.9-165,165-165s165,73.9,165,165S414.1,1028,323,1028z"/>
</g>
<g>
	<linearGradient id="SVGID_1_" gradientUnits="userSpaceOnUse" x1="1360" y1="133" x2="1660" y2="133">
		<stop  offset="0" style="stop-color:#3257FE"/>
		<stop  offset="1" style="stop-color:#488EEE"/>
	</linearGradient>
	<path class="st1" d="M1510-17c-82.8,0-150,67.2-150,150s67.2,150,150,150s150-67.2,150-150S1592.8-17,1510-17z M1510.5,221
		c-48.3,0-87.5-39.2-87.5-87.5c0-48.3,39.2-87.5,87.5-87.5s87.5,39.2,87.5,87.5C1598,181.8,1558.8,221,1510.5,221z"/>
</g>
<g>
	<linearGradient id="SVGID_2_" gradientUnits="userSpaceOnUse" x1="1780.291" y1="329.343" x2="1515.8583" y2="-128.668">
		<stop  offset="0" style="stop-color:#211A60"/>
		<stop  offset="1" style="stop-color:#211A60;stop-opacity:0"/>
	</linearGradient>
	<path class="st2" d="M1806,142c0,100.8-49.8,190.1-126.1,244.5l-6.7,4.6c-4.3,2.9-10.1,3.9-15.8,3.9c-19.1,0-34.5-15.9-34.5-35.5
		c0-11.2,4-20.5,13-27.8c1.4-1,2.8-2,4.2-3c58-41.8,95.8-109.8,95.8-186.8c0-107.9-74.3-198.4-174.5-223.2c-2.3-0.6-4.7-1.1-7-1.6
		c-13.4-3.1-23.4-18-23.4-33.6c0-19.6,15-35.5,34.5-35.5c4.5,0,14.1,3.1,14.1,3.1C1709.7-116.1,1806,1.7,1806,142z"/>
</g>
<g>
	<path class="st3" d="M27.8-29.8l238.9,238.9c0.1-0.2,0.2-0.4,0.3-0.5L28.4-30.1C28.2-30,28-29.9,27.8-29.8z"/>
	<path class="st3" d="M-60,122c0,96.6,78.4,175,175,175c9,0,17.7-0.7,26.3-2L-58,95.7C-59.3,104.3-60,113-60,122z"/>
	<path class="st3" d="M290,122c0-96.6-78.4-175-175-175c-1.4,0-2.8,0-4.2,0.1l179.2,179.2C290,124.8,290,123.4,290,122z"/>
	<path class="st3" d="M-27.7,20.7l244,244c0.2-0.1,0.3-0.2,0.5-0.4L-27.4,20.2C-27.5,20.4-27.6,20.6-27.7,20.7z"/>
	
		<linearGradient id="SVGID_3_" gradientUnits="userSpaceOnUse" x1="687.3379" y1="287.4838" x2="687.3379" y2="213.0674" gradientTransform="matrix(0.7071 0.7071 -0.7071 0.7071 -134.9924 -600.0527)">
		<stop  offset="0" style="stop-color:#FF2982;stop-opacity:0.3"/>
		<stop  offset="1" style="stop-color:#FF2982;stop-opacity:0"/>
	</linearGradient>
	<path class="st4" d="M110.8-52.9c-29.9,0.7-58,8.9-82.4,22.8l238.7,238.7c13.9-24.4,22.1-52.5,22.8-82.4L110.8-52.9z"/>
	
		<linearGradient id="SVGID_4_" gradientUnits="userSpaceOnUse" x1="687.3379" y1="362.5052" x2="687.3379" y2="288.0888" gradientTransform="matrix(0.7071 0.7071 -0.7071 0.7071 -134.9924 -600.0527)">
		<stop  offset="0" style="stop-color:#FF2982;stop-opacity:0.3"/>
		<stop  offset="1" style="stop-color:#FF2982;stop-opacity:0"/>
	</linearGradient>
	<path class="st5" d="M-27.4,20.2l244.1,244.1c20.4-14.6,37.5-33.4,50-55.2L27.8-29.8C6-17.2-12.8-0.1-27.4,20.2z"/>
	
		<linearGradient id="SVGID_5_" gradientUnits="userSpaceOnUse" x1="687.3379" y1="437.5266" x2="687.3379" y2="363.1102" gradientTransform="matrix(0.7071 0.7071 -0.7071 0.7071 -134.9924 -600.0527)">
		<stop  offset="0" style="stop-color:#FF2982;stop-opacity:0.3"/>
		<stop  offset="1" style="stop-color:#FF2982;stop-opacity:0"/>
	</linearGradient>
	<path class="st6" d="M-58,95.7L141.3,295c27.6-4.2,53.1-14.8,74.9-30.3l-244-244C-43.2,42.5-53.9,68-58,95.7z"/>
	<path class="st7" d="M114.5-124c-22.8,0-44.9,3.1-65.8,8.9c-26,7.2-50.2,18.6-71.9,33.3c-0.2,0.1-0.3,0.2-0.5,0.3
		c-20.6,14.1-39,31.2-54.5,50.8c-0.1,0.2-0.2,0.3-0.4,0.5c-15.9,20.2-28.7,43-37.6,67.6c-9.6,26.2-14.8,54.5-14.8,84
		C-131,257.1-21.1,367,114.5,367c29.5,0,57.8-5.2,84-14.8c24.6-9,47.4-21.8,67.6-37.6c0.2-0.1,0.3-0.3,0.5-0.4
		c19.6-15.5,36.7-33.8,50.8-54.5c0.1-0.2,0.2-0.3,0.3-0.5c14.8-21.7,26.1-46,33.3-71.9c5.8-20.9,8.9-43,8.9-65.8
		C360-14.1,250.1-124,114.5-124z M290,126.2c-0.7,29.9-8.9,58-22.9,82.4c-0.1,0.2-0.2,0.4-0.3,0.5c-12.5,21.8-29.6,40.6-50,55.2
		c-0.2,0.1-0.3,0.2-0.5,0.4c-21.8,15.5-47.3,26.1-75,30.3c-8.6,1.3-17.4,2-26.3,2c-96.7,0-175-78.4-175-175c0-9,0.7-17.7,2-26.3
		c4.2-27.6,14.8-53.1,30.3-75c0.1-0.2,0.2-0.3,0.4-0.5C-12.8-0.1,6-17.3,27.8-29.8c0.2-0.1,0.4-0.2,0.6-0.3
		C52.8-44,80.9-52.2,110.8-53c1.4,0,2.8,0,4.2,0c96.7,0,175,78.3,175,175C290,123.4,290,124.8,290,126.2z"/>
</g>
<g>
	<linearGradient id="SVGID_6_" gradientUnits="userSpaceOnUse" x1="119.6672" y1="-268.0004" x2="119.3998" y2="-268.0004">
		<stop  offset="1.248920e-03" style="stop-color:#3D30B3"/>
		<stop  offset="1" style="stop-color:#3D30B3;stop-opacity:0"/>
	</linearGradient>
	<path class="st8" d="M119.5-268c0,0-0.1,0-0.1,0c0.1,0,0.2,0,0.3,0C119.6-268,119.6-268,119.5-268z"/>
	<g>
		<linearGradient id="SVGID_7_" gradientUnits="userSpaceOnUse" x1="156" y1="121.9975" x2="-277" y2="121.9975">
			<stop  offset="1.248920e-03" style="stop-color:#3D30B3"/>
			<stop  offset="1" style="stop-color:#3D30B3;stop-opacity:0"/>
		</linearGradient>
		<path class="st9" d="M150,473.5c0,18.7-16,38.5-30,38.4c-2.3,0-4.7,0.1-7,0.1c-3.8,0-7.6-0.1-11.4-0.2
			C-108.5,505.8-277,333.6-277,122c0-213.8,172-387.4,385.2-390c1.6,0,3.2,0,4.8,0c4.6,0,9.2,0.1,13.8,0.2
			C142-267,156-247.9,156-229.5c0,19.2-13,39.5-31.4,38.7c-3.9-0.1-7.7-0.2-11.6-0.2c-1.5,0-3,0-4.5,0.1
			C-62.3-188.6-200-49.4-200,122c0,169.5,134.8,307.6,303,312.8c3.3,0.1,6.6,0.2,10,0.2c2.1,0,4.2,0,6.4-0.1
			C135,435,150,454.6,150,473.5z"/>
	</g>
</g>
<linearGradient id="SVGID_8_" gradientUnits="userSpaceOnUse" x1="2676.4624" y1="-318.0634" x2="2676.4624" y2="-441.0634" gradientTransform="matrix(0.7071 0.7071 -0.7071 0.7071 -96.4239 -570.1655)">
	<stop  offset="1.248920e-03" style="stop-color:#181144;stop-opacity:0.7"/>
	<stop  offset="1" style="stop-color:#181144;stop-opacity:0"/>
</linearGradient>
<polygon class="st10" points="2551,1627.5 1491,567.5 1578,480.5 2638,1540.5 "/>
<linearGradient id="SVGID_9_" gradientUnits="userSpaceOnUse" x1="2676.4624" y1="-195.0634" x2="2676.4624" y2="-318.0634" gradientTransform="matrix(0.7071 0.7071 -0.7071 0.7071 -96.4239 -570.1655)">
	<stop  offset="1.248920e-03" style="stop-color:#181144;stop-opacity:0.7"/>
	<stop  offset="1" style="stop-color:#181144;stop-opacity:0"/>
</linearGradient>
<polygon class="st11" points="2464,1714.4 1404.1,654.5 1491,567.5 2551,1627.5 "/>
<linearGradient id="SVGID_10_" gradientUnits="userSpaceOnUse" x1="2676.4624" y1="-72.0634" x2="2676.4624" y2="-195.0634" gradientTransform="matrix(0.7071 0.7071 -0.7071 0.7071 -96.4239 -570.1655)">
	<stop  offset="1.248920e-03" style="stop-color:#181144;stop-opacity:0.7"/>
	<stop  offset="1" style="stop-color:#181144;stop-opacity:0"/>
</linearGradient>
<polygon class="st12" points="2377.1,1801.4 1317.1,741.4 1404.1,654.5 2464,1714.4 "/>
</svg>

